<svg xmlns="http://www.w3.org/2000/svg" xmlns:xlink="http://www.w3.org/1999/xlink" viewBox="0 0 1400.45 573.16"><defs><style>.cls-1{fill:none;}.cls-2{isolation:isolate;}.cls-3{fill:#ed2424;}.cls-4{fill:#f05a26;}.cls-5{fill:#df0031;}.cls-6{fill:#fff;}.cls-7{fill:#f6f4ef;}.cls-8{clip-path:url(#clip-path);}.cls-9{fill:#e4e0d0;}.cls-10{clip-path:url(#clip-path-2);}.cls-11{fill:#542c37;}.cls-12,.cls-13{fill:#f5ae00;}.cls-13{opacity:0.65;mix-blend-mode:multiply;}.cls-14{clip-path:url(#clip-path-3);}.cls-15{fill:#ccd4d3;}.cls-16{clip-path:url(#clip-path-4);}.cls-17{clip-path:url(#clip-path-5);}.cls-18{fill:#c7d0ce;}.cls-19{fill:#2f6e85;}.cls-20{clip-path:url(#clip-path-6);}</style><clipPath id="clip-path" transform="translate(0.26 -133.84)"><path class="cls-1" d="M1227,583.52s-1.32-2.67,3.1-4.95,51.34-6.67,51.34-6.67a7.75,7.75,0,0,0,1.45,3.69,9.35,9.35,0,0,0,2.76,2Z"/></clipPath><clipPath id="clip-path-2" transform="translate(0.26 -133.84)"><path class="cls-1" d="M1225.46,582.85s2.86-.85,1.5-5.64-30.14-42.09-30.14-42.09a7.76,7.76,0,0,1-3.68,1.45,9.22,9.22,0,0,1-3.33-.68Z"/></clipPath><clipPath id="clip-path-3" transform="translate(0.26 -133.84)"><path class="cls-1" d="M297.84,631.63l.18-.15-75.6-91.4h0a13.38,13.38,0,0,0-18.59-1.32,13,13,0,0,0-1.8,18.54c.59.7,1.1,1.38,1.76,2.17l73.48,88.85c-2.89-5.47-.23-10.79,4.81-15S293,627.61,297.84,631.63Z"/></clipPath><clipPath id="clip-path-4" transform="translate(0.26 -133.84)"><path class="cls-1" d="M933,375.37,978.38,296s1.67,1.66,9,2.62,17.74-3.16,17.74-3.16L958.5,376.86s-8,4.82-14,3.61A34.74,34.74,0,0,1,933,375.37Z"/></clipPath><clipPath id="clip-path-5" transform="translate(0.26 -133.84)"><path class="cls-1" d="M565.42,571.09l49.44,29.32,49.43,29.32s0-4.43,4.09-11.27c4.69-7.91,7.93-9,7.93-9l-49.44-29.31-49.44-29.32-6,10.13Z"/></clipPath><clipPath id="clip-path-6" transform="translate(0.26 -133.84)"><path class="cls-1" d="M1281.93,360.47l-51.33-2.6-7.66,11.47L1274,372s.13-1.2,2.55-4.94A32.23,32.23,0,0,1,1281.93,360.47Z"/></clipPath></defs><title>vuur_boeken</title><g class="cls-2"><g id="Layer_5" data-name="Layer 5"><path class="cls-3" d="M103,686c-42.26-13.19-68.89-33.41-67-50,.39-3.39,2.11-7.94,8-13,8.35-5.25,21-12.84,37-21,19.76-10.07,34.43-15.8,34-17-.86-2.42-61.23,20-64,14-1.49-3.23,14.06-13.71,31-24-20.18-7.86-41.59-16-42-15-.54,1.27,33.28,22.4,42,15S77.12,529.06,0,412V266a31,31,0,0,0,0,8c3.2,24.43,35.13,37,39.82,38.73,3.3-21.1,36-33.32,41.08-66.14,12.33,25,23.68,27.5,19.11,51.64C123,279.1,113.34,184,167.28,161.87c-6.31,18,2.6,42.39,15.21,43.13s10.86-11.3,10.86-11.3a21,21,0,0,1,13.1,8.09c7.9-3.28,4.22-17.54,18.67-23.87-3.29,12.78,16.27,23.32,14.46,43.35,24.13-5.89,47.17-20.38,53.83-58.55,15.57,21.1-1.57,56.26,2,64.89s14.79-11.7,32-8.56c-7,8.07-.76,30.46,12,36.82,11.57,11.61,33.79-19,26.87-37.78,16.6-2.74,28.58,13.4,31.78,19.71,6.5-7.1,6.49-13.58,18.31-16.66-2.3,5.59-15.47,30.17,5.55,41.47,20.35,14.34,27.73-74.35,86.35-90-4.87,34.16.93,46.15,30.37,59.69,28.06,15-2.5-47.9,30.7-68.79,1.45,8.47-1.39,16.86,26.49,28.65s6.25,65,18.08,68.39,33.32-12.82,22.12-32.25c9.77-12.17,59.52,25.26,60.69,35.44,9-8.88,22.76-12.16,19-38.18-1.88-26.59,35.61-39.69,42.48-47.51-3.12,17.8-4.81,23.4-.85,36s29.09,55.63-5.23,105.87c-1.37,15.63,12.55-2.7,20.78-3.64-10.78,14.11-42.83,104.41-41.78,136.12s46,5.54,38.38-22.51c32.46,16.05-2.15,84-35.82,139.54,11.85,16.38,7.27,48.23,30.62,16A490.37,490.37,0,0,1,646,645c-112.12,38.43-211.57,26.5-264,16-71.93,3.1-146.7,8.88-224,18Q130.19,682.29,103,686Z" transform="translate(0.26 -133.84)"/><path class="cls-4" d="M0,707V314a64.84,64.84,0,0,0,13.39,20.68c13.51,14,29.66,17.85,36.21,19,3-19.3,32.87-30.5,37.56-60.5,11.21,22.8,21.57,25.11,17.37,47.18,21-17.51,12.29-104.46,61.53-124.7-5.77,16.45,2.32,38.74,13.83,39.39s9.92-10.33,9.92-10.33a19.08,19.08,0,0,1,11.94,7.37c7.21-3,3.87-16,17.06-21.83-3,11.69,14.82,21.29,13.15,39.6,22-5.41,43.06-18.67,49.17-53.57,14.19,19.27-1.49,51.42,1.72,59.31s13.51-10.72,29.22-7.86c-6.39,7.37-.73,27.83,10.91,33.63,10.55,10.6,50.79-24.89,44.5-42,15.15-2.52,6.12,19.66,9,25.42,5.93-6.49,25.87-19.87,36.66-22.69-2.11,5.1-14.15,27.59,5,37.89,18.55,13.09,25.39-68,78.89-82.34-4.48,31.24,13,37.69,39.86,50,25.58,13.66,4.42-50.47,34.74-69.61,1.31,7.74-1.29,15.41,24.13,26.16s-13.23,70.58-2.44,73.68,50.24-11.72,40-29.46c8.92-11.14,54.27,23,55.33,32.31,8.75,5.33,12.33-8.11,12.26-16.18-1.69-24.3,32.53-36.32,38.81-43.47C737,257.42,735.41,262.54,739,274s7,27.7-7.4,71.5c-1.26,14.29,11.46-2.48,19-3.35-9.86,12.91-71.32,109.43-70.39,138.41s42,5,35.05-20.62c29.59,14.63-2.07,76.8-32.85,127.57,10.8,15,34.57,45.15,55.9,15.68C686.75,681.64,663.63,707,655,707H0Z" transform="translate(0.26 -133.84)"/><path class="cls-3" d="M1400,451V371h0V299h0V236q-1.47,1.45-3.08,3c-1,.95-2,1.85-3,2.71-1.25-10.77-53.9-50.38-64.24-37.5,11.85,20.56-10.88,37.74-23.41,34.13s10.36-59.89-19.14-72.38-26.49-21.36-28-30.33c-35.14,22.12-2.8,88.66-32.5,72.8-31.15-14.33-37.29-27-32.14-63.17-62,16.54-69.85,110.42-91.39,95.23-22.24-11.95-8.31-38-5.87-43.88-12.51,3.25-12.5,10.12-19.37,17.62-3.39-6.67-16.08-23.75-33.64-20.85,7.32,19.83-16.19,52.27-28.44,40-13.51-6.74-20.11-30.44-12.7-39-18.24-3.33-30.15,18.19-33.89,9.06s14.41-46.35-2.08-68.68c-7,40.4-31.43,55.73-57,62,1.91-21.21-18.79-32.35-15.31-45.89-15.3,6.7-11.4,21.8-19.76,25.26-6.1-7.75-13.87-8.55-13.87-8.55s1.86,12.73-11.49,11.95-22.77-26.6-16.09-45.64A518.75,518.75,0,0,0,751,287q-.4,12.39-1,25c-1.34,28.18-3.39,55.53-6,82,3.16,31.91,20.6,54.72,40,57,4,.46,11.41.48,21-5,0,35.79-13.41,59.26-26,60a11.23,11.23,0,0,1-3.55-.39C817.22,580.7,816.64,604.93,808,613c-8,7.52-25.7,3.44-44.85-3.52,2.26,11.57-7.1,27.84-1.15,34.52,6.33,7.12,28.85,2,82.74-29.31-1.37-1.62-1.3-4.83.26-9.69a106.06,106.06,0,0,1,37-15c1.46-.28,2.91-.52,4.36-.74Q898.9,581.3,913,572q-11,9.22-20.27,16.51c53.88,38.3,101.9,59.93,135.27,72.49,121.16,45.59,246.35,45.8,366,46h6V451Z" transform="translate(0.26 -133.84)"/><path class="cls-4" d="M1400,457c0-23.91,0-23,0-27,0-5.12.07-12.54.19-21.63L1400,372v-1h0V299h0V253a25.78,25.78,0,0,0-1.43,5.86,29.23,29.23,0,0,0-.13,4.89c.08,8.54-3.71,22.77-13,17.13-1.13-9.85-49.12-46-58.56-34.21,10.78,18.78-31,34.47-42.39,31.19s29.48-66.6,2.58-78-24.15-19.49-25.54-27.68c-32.09,20.25-9.69,88.12-36.77,73.67-28.4-13.07-46.92-19.89-42.18-53-56.62,15.19-63.85,101-83.49,87.14-20.28-10.9-7.54-34.7-5.31-40.1-11.41,3-32.52,17.14-38.8,24-3.08-6.09,6.47-29.57-9.56-26.9,6.66,18.11-35.94,55.67-47.1,44.46-12.31-6.15-18.31-27.8-11.54-35.6-16.64-3-27.53,16.66-30.93,8.31s13.2-42.37-1.82-62.76c-6.47,36.93-28.74,51-52,56.7,1.77-19.38-17.1-29.55-13.92-41.92-14,6.14-10.42,19.93-18.05,23.11a20.19,20.19,0,0,0-12.64-7.81s1.68,11.63-10.5,10.94-20.75-24.29-14.63-41.69c-52.11,21.42-42.89,113.44-65.13,132,4.45-23.35-6.51-25.8-18.38-49.92-5,31.75-36.54,43.6-39.75,64-33-2-50.83-36.43-55.16-45.86-17.41,27-2.15,92.64-7.05,102s-20.57-1.79-18.92-27.21c-39,35.16,15.65,213.93,11,212.07s-4.62-12.87-10.06-19.6c7.47,18.84-10.84,29.87-12.72,42s-27.22,19.51-29.76-3.62c-8,14.14-9,25.93-8.8,33,.94,32.64,30.61,63.79,74.5,77.25h748V457Z" transform="translate(0.26 -133.84)"/><path class="cls-3" d="M1049,1036" transform="translate(0.26 -133.84)"/></g><g id="boeken"><g id="eeste_boek" data-name="eeste boek"><rect class="cls-5" x="130.64" y="314.99" width="127.11" height="87.34" transform="translate(311.12 -166) rotate(45.05)"/><path class="cls-6" d="M223.33,329.27s5.69-1.13,13.33,7.35S266,372.42,266,372.42l-59.2,59.08s-18.48-26-31.81-37.25c-6-5.09-11.26-5.9-11.26-5.9S223.33,329.58,223.33,329.27Z" transform="translate(0.26 -133.84)"/><path class="cls-6" d="M223.12,329.32s.94-6.09-7.54-13.74-35.74-29.4-35.74-29.4l-59.19,59.08s25.93,18.53,37.19,31.88c5.08,6,5.88,11.27,5.88,11.27S222.81,329.32,223.12,329.32Z" transform="translate(0.26 -133.84)"/><path class="cls-7" d="M165.38,388.83q28.78-29.7,57.56-59.42l-.23-.35c0,.31-59,59.29-59,59.29Z" transform="translate(0.26 -133.84)"/></g><path class="cls-6" d="M1227,583.52s-1.32-2.67,3.1-4.95,51.34-6.67,51.34-6.67a7.75,7.75,0,0,0,1.45,3.69,9.35,9.35,0,0,0,2.76,2Z" transform="translate(0.26 -133.84)"/><g class="cls-8"><path class="cls-9" d="M1283.8,572.28l-59.58,6.79.26.35,59.44-6.78Z" transform="translate(0.26 -133.84)"/><path class="cls-9" d="M1284.26,573.35,1225,580.11l.26.35,59.23-6.76C1284.4,573.59,1284.33,573.47,1284.26,573.35Z" transform="translate(0.26 -133.84)"/><path class="cls-9" d="M1285,574.39l-59.25,6.76.25.34,59.32-6.76Z" transform="translate(0.26 -133.84)"/><path class="cls-9" d="M1286,575.4l-59.51,6.79.26.34,59.63-6.8Z" transform="translate(0.26 -133.84)"/><path class="cls-9" d="M1287.21,576.39l-59.92,6.83.26.35,60.06-6.85Z" transform="translate(0.26 -133.84)"/><path class="cls-9" d="M1288.33,577.39l-60.27,6.87.26.35,60.28-6.88A2.88,2.88,0,0,0,1288.33,577.39Z" transform="translate(0.26 -133.84)"/><path class="cls-9" d="M1289,578.44l-60.12,6.86.25.34,60-6.83C1289,578.68,1289,578.56,1289,578.44Z" transform="translate(0.26 -133.84)"/></g><path class="cls-6" d="M1225.46,582.85s2.86-.85,1.5-5.64-30.14-42.09-30.14-42.09a7.76,7.76,0,0,1-3.68,1.45,9.22,9.22,0,0,1-3.33-.68Z" transform="translate(0.26 -133.84)"/><g class="cls-10"><path class="cls-9" d="M1194.93,533.64l35.67,48.2-.43,0-35.59-48.09Z" transform="translate(0.26 -133.84)"/><path class="cls-9" d="M1193.83,534l35.48,48-.42,0-35.47-47.92Z" transform="translate(0.26 -133.84)"/><path class="cls-9" d="M1192.56,534.2,1228,582.14l-.42.05-35.52-48Z" transform="translate(0.26 -133.84)"/><path class="cls-9" d="M1191.13,534.14l35.62,48.14-.43.05-35.7-48.24Z" transform="translate(0.26 -133.84)"/><path class="cls-9" d="M1189.6,534l35.87,48.47-.43.05-36-48.6Z" transform="translate(0.26 -133.84)"/><path class="cls-9" d="M1188.1,533.82l36.09,48.76-.43,0-36.09-48.77A3.11,3.11,0,0,1,1188.1,533.82Z" transform="translate(0.26 -133.84)"/><path class="cls-9" d="M1186.91,534.08l36,48.64-.42,0-35.89-48.5A3.37,3.37,0,0,1,1186.91,534.08Z" transform="translate(0.26 -133.84)"/></g><polygon class="cls-11" points="1257.93 510.47 1204.64 516.79 1233.68 449.16 1286.97 442.84 1257.93 510.47"/><polygon class="cls-11" points="1159.64 467.62 1191.37 510.89 1221.02 443.53 1189.29 400.25 1159.64 467.62"/><path class="cls-5" d="M1205.55,650.49a14,14,0,0,1-15.08-6.56l29.45-67.73a14,14,0,0,0,15.08,6.56Z" transform="translate(0.26 -133.84)"/><path class="cls-11" d="M1211,638.06a14,14,0,0,1-15.07-6.56l1.39-3.2a14,14,0,0,0,15.08,6.55Z" transform="translate(0.26 -133.84)"/><path class="cls-11" d="M1230.06,594.11a14,14,0,0,1-15.08-6.55l1.4-3.21a14,14,0,0,0,15.07,6.55Z" transform="translate(0.26 -133.84)"/><path class="cls-11" d="M1213.12,633.09a14,14,0,0,1-15.08-6.56l.7-1.6a14,14,0,0,0,15.07,6.55Z" transform="translate(0.26 -133.84)"/><path class="cls-12" d="M394.12,543.28,322.71,457c-.1-.13-.21-.24-.32-.36L199.29,558.4l.29.39L271,645.12a9.57,9.57,0,0,0,13.43,1.32l108.47-89.72A9.57,9.57,0,0,0,394.12,543.28Z" transform="translate(0.26 -133.84)"/><path class="cls-13" d="M394.12,543.28,322.71,457c-.1-.13-.21-.24-.32-.36L199.29,558.4l.29.39L271,645.12a9.57,9.57,0,0,0,13.43,1.32l108.47-89.72A9.57,9.57,0,0,0,394.12,543.28Z" transform="translate(0.26 -133.84)"/><path class="cls-6" d="M297.84,631.63l.18-.15-75.6-91.4h0a13.38,13.38,0,0,0-18.59-1.32,13,13,0,0,0-1.8,18.54c.59.7,1.16,1.5,1.76,2.17l73.48,88.85c-2.89-5.47-.23-10.79,4.81-15S293,627.61,297.84,631.63Z" transform="translate(0.26 -133.84)"/><g class="cls-14"><rect class="cls-15" x="186.65" y="582.95" width="133.13" height="1.3" transform="translate(541.81 -117.32) rotate(50.41)"/><rect class="cls-15" x="181.61" y="587.12" width="133.13" height="1.3" transform="translate(543.19 -111.92) rotate(50.41)"/><rect class="cls-15" x="176.56" y="591.3" width="133.13" height="1.3" transform="translate(544.58 -106.51) rotate(50.41)"/><rect class="cls-15" x="174.04" y="593.38" width="133.13" height="1.3" transform="translate(545.27 -103.81) rotate(50.41)"/><rect class="cls-15" x="171.51" y="595.47" width="133.13" height="1.3" transform="translate(545.96 -101.11) rotate(50.41)"/><rect class="cls-15" x="179.08" y="589.21" width="133.13" height="1.3" transform="translate(543.89 -109.21) rotate(50.41)"/><rect class="cls-15" x="184.13" y="585.03" width="133.13" height="1.3" transform="translate(542.5 -114.62) rotate(50.41)"/></g><path class="cls-12" d="M415,526.52l-71.4-86.34c-.1-.12-.22-.23-.33-.35L220.13,541.64c.09.13.18.26.28.38l71.41,86.34a9.57,9.57,0,0,0,13.43,1.32L413.73,540A9.57,9.57,0,0,0,415,526.52Z" transform="translate(0.26 -133.84)"/><path class="cls-11" d="M201.46,556.66c-.07-.08-.17-.31-.23-.39-2.78-3.57-3.08-12.58,2.09-16.86a11.39,11.39,0,0,1,16.45,1.64c.07.08.34.51.4.6l102.22-85.06.24.27,20.59-17c-.14-.19-.27-.38-.41-.55-4.31-5.21-11.78-7.28-17.34-4a46.72,46.72,0,0,0-4.58,3.49L201.05,537.48a13.12,13.12,0,0,0-1.37,1.31l-.32.26,0,.05a14.68,14.68,0,0,0-.31,19l.22.24Z" transform="translate(0.26 -133.84)"/><rect class="cls-11" x="315.48" y="499.8" width="80.1" height="10.88" rx="4.96" transform="translate(518.53 -224.57) rotate(50.41)"/><rect class="cls-11" x="317.89" y="514.72" width="43.13" height="8.9" rx="4.06" transform="translate(523.43 -207.14) rotate(50.41)"/><polygon class="cls-5" points="999.27 354.48 1044.7 274.63 978.21 161.14 932.78 240.98 999.27 354.48"/><path class="cls-6" d="M933,375.46l45.34-79.35s1.67,1.66,9,2.63,17.74-3.17,17.74-3.17L958.5,376.94s-8,4.83-14,3.62A35,35,0,0,1,933,375.46Z" transform="translate(0.26 -133.84)"/><g class="cls-16"><polygon class="cls-9" points="1001.5 128.63 922.85 266.89 922.06 266.9 1000.72 128.64 1001.5 128.63"/><polygon class="cls-9" points="1004.64 128.61 925.98 266.88 925.19 266.88 1003.85 128.62 1004.64 128.61"/><polygon class="cls-9" points="1007.77 128.59 929.11 266.86 928.33 266.86 1006.99 128.6 1007.77 128.59"/><polygon class="cls-9" points="1010.9 128.57 932.24 266.84 931.46 266.84 1010.12 128.58 1010.9 128.57"/><polygon class="cls-9" points="1014.03 128.56 935.37 266.82 934.59 266.82 1013.25 128.56 1014.03 128.56"/><polygon class="cls-9" points="1017.16 128.53 938.5 266.8 937.72 266.8 1016.38 128.54 1017.16 128.53"/><polygon class="cls-9" points="1020.3 128.51 941.64 266.78 940.85 266.78 1019.51 128.52 1020.3 128.51"/></g><path class="cls-5" d="M1025.87,488.28l45.43-79.84-66.49-113.5L956,379a670.76,670.76,0,0,0,34,59C1002,456.62,1014.15,473.36,1025.87,488.28Z" transform="translate(0.26 -133.84)"/><path class="cls-11" d="M999.81,500.86a80.52,80.52,0,0,0,26.54-12.8,624.83,624.83,0,0,1-69.44-110.78,66.73,66.73,0,0,1-24.85-2.62A554.75,554.75,0,0,0,999.81,500.86Z" transform="translate(0.26 -133.84)"/><path class="cls-6" d="M565.42,571.09l49.44,29.32,49.43,29.32s0-4.43,4.09-11.27c4.69-7.91,7.93-9,7.93-9l-49.44-29.31-49.44-29.32-6,10.13Z" transform="translate(0.26 -133.84)"/><path class="cls-1" d="M565.42,571.09l49.44,29.32,49.43,29.32s-1.25-5.19,2.81-12c4.69-7.91,9.21-8.24,9.21-8.24l-49.44-29.31-49.44-29.32-6,10.13Z" transform="translate(0.26 -133.84)"/><g class="cls-17"><rect class="cls-18" x="563.02" y="587.41" width="117.23" height="0.87" transform="translate(856.72 1276.71) rotate(-149.33)"/><rect class="cls-18" x="561.76" y="589.54" width="117.23" height="0.87" transform="matrix(-0.86, -0.51, 0.51, -0.86, 853.29, 1280.03)"/><rect class="cls-18" x="560.5" y="591.67" width="117.23" height="0.87" transform="translate(849.86 1283.34) rotate(-149.33)"/><rect class="cls-18" x="559.23" y="593.8" width="117.23" height="0.87" transform="translate(846.42 1286.66) rotate(-149.33)"/><rect class="cls-18" x="557.97" y="595.93" width="117.23" height="0.87" transform="translate(842.99 1289.98) rotate(-149.33)"/><rect class="cls-18" x="556.71" y="598.06" width="117.23" height="0.87" transform="translate(839.55 1293.29) rotate(-149.33)"/><rect class="cls-18" x="566.88" y="580.9" width="117.23" height="0.87" transform="translate(867.23 1266.57) rotate(-149.33)"/><rect class="cls-18" x="565.62" y="583.03" width="117.23" height="0.87" transform="translate(863.8 1269.88) rotate(-149.33)"/><rect class="cls-18" x="564.36" y="585.16" width="117.23" height="0.87" transform="translate(860.37 1273.2) rotate(-149.33)"/></g><polygon class="cls-19" points="681.88 474.7 679.99 477.88 577.59 417.15 565.67 437.25 668.07 497.98 666.18 501.16 558.63 437.38 574.32 410.92 681.88 474.7"/><g id="Layer_4" data-name="Layer 4"><path class="cls-12" d="M1248.41,297.21l-50.36-2.87h-.21L1230.42,359l.22,0,50.35,2.87c2.37.13,3.43-1.49,2.37-3.61l-28.71-57A8.23,8.23,0,0,0,1248.41,297.21Z" transform="translate(0.26 -133.84)"/><polygon class="cls-11" points="1251.02 177.19 1216.77 175.25 1215.23 172.18 1249.47 174.13 1251.02 177.19"/><g class="cls-20"><path class="cls-6" d="M1222,372l8-14,51,3.89L1276,372Z" transform="translate(0.26 -133.84)"/><polygon class="cls-9" points="1296.91 230.5 1224.99 226.4 1225.27 225.98 1297.19 230.08 1296.91 230.5"/><polygon class="cls-9" points="1296.07 231.79 1224.15 227.69 1224.43 227.26 1296.35 231.36 1296.07 231.79"/><polygon class="cls-9" points="1295.22 233.07 1223.31 228.97 1223.59 228.54 1295.51 232.65 1295.22 233.07"/><polygon class="cls-9" points="1294.38 234.36 1222.47 230.26 1222.75 229.83 1294.66 233.93 1294.38 234.36"/><polygon class="cls-9" points="1293.54 235.64 1221.62 231.54 1221.9 231.11 1293.82 235.21 1293.54 235.64"/><polygon class="cls-9" points="1292.7 236.93 1220.78 232.83 1221.06 232.4 1292.98 236.5 1292.7 236.93"/><polygon class="cls-9" points="1291.86 238.21 1219.94 234.11 1220.22 233.68 1292.14 237.78 1291.86 238.21"/></g><path class="cls-5" d="M1231,358l-8,12-33.26-63.23,8.25-12.59Z" transform="translate(0.26 -133.84)"/></g></g></g></svg>